<svg version="1.1" id="Layer_1" xmlns="http://www.w3.org/2000/svg" xmlns:xlink="http://www.w3.org/1999/xlink" x="0px" y="0px"
	 width="100%" viewBox="0 0 583 583" enable-background="new 0 0 583 583" xml:space="preserve">
<path fill="#000000" opacity="1.000000" stroke="none" 
	d="
M375.000000,584.000000 
	C250.000000,584.000000 125.500000,584.000000 1.000000,584.000000 
	C1.000000,389.666656 1.000000,195.333328 1.000000,1.000000 
	C195.333328,1.000000 389.666656,1.000000 584.000000,1.000000 
	C584.000000,195.333328 584.000000,389.666656 584.000000,584.000000 
	C514.500000,584.000000 445.000000,584.000000 375.000000,584.000000 
M349.957001,464.613586 
	C357.752808,464.238495 365.576782,464.153046 373.335724,463.398865 
	C379.829102,462.767731 385.783539,460.483917 390.417999,455.442535 
	C395.931427,449.445099 397.533356,442.024139 397.754303,434.374542 
	C398.058533,423.841248 397.705444,413.286804 397.546356,402.742767 
	C397.373535,391.288544 396.953888,379.836548 396.901886,368.382355 
	C396.797485,345.399719 396.869568,322.416229 396.869629,299.433105 
	C396.869690,280.607086 396.874725,261.781067 396.870728,242.955032 
	C396.864380,212.791290 397.021088,182.625519 396.660370,152.465973 
	C396.606445,147.958954 394.875610,143.042969 392.597839,139.075546 
	C386.785339,128.951340 376.452606,126.244781 365.886932,125.880257 
	C353.136780,125.440369 340.342743,126.426003 327.565125,126.580833 
	C316.734589,126.712074 308.293457,131.696518 300.928162,139.053329 
	C273.956329,165.994125 246.974091,192.924637 220.084930,219.947708 
	C217.167374,222.879807 215.092789,223.425293 211.867279,220.218002 
	C185.878677,194.376114 159.094986,169.294922 133.920349,142.688705 
	C119.935249,127.908318 103.123100,125.885910 84.973618,125.753471 
	C77.055061,125.695679 69.130768,126.299355 61.210873,126.643967 
	C59.402054,126.722672 57.561989,126.792419 55.801910,127.171181 
	C40.056938,130.559418 33.140522,142.648010 32.995407,156.595856 
	C32.822041,173.259125 32.950790,189.925552 32.951847,206.590622 
	C32.956654,282.583313 32.894726,358.576111 33.032257,434.568542 
	C33.056267,447.837280 39.123447,459.614410 53.758396,462.847626 
	C58.700111,463.939392 63.867096,464.526184 68.924538,464.487274 
	C87.468010,464.344757 106.020767,464.135437 124.546341,463.374664 
	C137.544601,462.840851 149.226059,451.413727 148.911606,439.292511 
	C148.727631,432.200531 148.747894,425.096954 148.908081,418.003815 
	C149.157440,406.961731 149.720535,395.926270 149.929489,384.883850 
	C150.090820,376.358765 149.900238,367.827271 149.888412,359.298584 
	C149.867859,344.468292 149.863922,329.638000 149.854324,314.807709 
	C149.851730,310.808502 149.703506,306.800690 149.931213,302.814514 
	C150.016830,301.315918 150.979767,299.867493 151.542725,298.396179 
	C153.090210,299.046356 154.777008,299.488556 156.145844,300.405457 
	C157.504166,301.315338 158.542587,302.702881 159.720932,303.881317 
	C177.042679,321.204437 194.362869,338.529083 211.687180,355.849640 
	C215.663467,359.825043 217.624512,359.675354 221.361847,355.398224 
	C223.706406,352.715057 226.169632,350.126740 228.696747,347.613647 
	C235.548645,340.799805 242.541565,334.126404 249.333008,327.253510 
	C258.093506,318.387970 266.659607,309.329956 275.451538,300.496307 
	C276.724182,299.217651 278.788147,298.726624 280.485962,297.871124 
	C280.962280,299.691925 281.847229,301.511292 281.853546,303.333710 
	C281.945374,329.861023 281.920044,356.388763 281.921814,382.916382 
	C281.923035,401.466064 282.027710,420.016602 281.882050,438.565125 
	C281.800751,448.913422 287.277252,455.584412 295.665985,460.357544 
	C302.167664,464.056976 309.347046,463.755951 316.598389,463.654205 
	C327.444336,463.501892 338.300476,464.076630 349.957001,464.613586 
M521.246826,333.738770 
	C529.517700,327.750763 537.843201,321.836151 546.035339,315.742218 
	C549.869019,312.890442 553.905334,310.094269 557.010132,306.539490 
	C560.194458,302.893616 563.709656,298.316650 560.930298,293.160919 
	C558.546021,288.738159 555.494446,284.096405 551.533081,281.198578 
	C529.492188,265.075226 507.061066,249.486313 484.810150,233.648926 
	C471.141785,223.920258 457.599701,214.014145 443.920013,204.301620 
	C434.577820,197.668701 425.096039,191.232376 414.817627,184.113159 
	C414.817627,259.945251 414.817627,334.898529 414.817627,411.049805 
	C450.900513,384.854523 485.793121,359.523376 521.246826,333.738770 
z"/>
<path fill="#F3C92F" opacity="1.000000" stroke="none" 
	d="
M349.554626,464.477844 
	C338.300476,464.076630 327.444336,463.501892 316.598389,463.654205 
	C309.347046,463.755951 302.167664,464.056976 295.665985,460.357544 
	C287.277252,455.584412 281.800751,448.913422 281.882050,438.565125 
	C282.027710,420.016602 281.923035,401.466064 281.921814,382.916382 
	C281.920044,356.388763 281.945374,329.861023 281.853546,303.333710 
	C281.847229,301.511292 280.962280,299.691925 280.485962,297.871124 
	C278.788147,298.726624 276.724182,299.217651 275.451538,300.496307 
	C266.659607,309.329956 258.093506,318.387970 249.333008,327.253510 
	C242.541565,334.126404 235.548645,340.799805 228.696747,347.613647 
	C226.169632,350.126740 223.706406,352.715057 221.361847,355.398224 
	C217.624512,359.675354 215.663467,359.825043 211.687180,355.849640 
	C194.362869,338.529083 177.042679,321.204437 159.720932,303.881317 
	C158.542587,302.702881 157.504166,301.315338 156.145844,300.405457 
	C154.777008,299.488556 153.090210,299.046356 151.542725,298.396179 
	C150.979767,299.867493 150.016830,301.315918 149.931213,302.814514 
	C149.703506,306.800690 149.851730,310.808502 149.854324,314.807709 
	C149.863922,329.638000 149.867859,344.468292 149.888412,359.298584 
	C149.900238,367.827271 150.090820,376.358765 149.929489,384.883850 
	C149.720535,395.926270 149.157440,406.961731 148.908081,418.003815 
	C148.747894,425.096954 148.727631,432.200531 148.911606,439.292511 
	C149.226059,451.413727 137.544601,462.840851 124.546341,463.374664 
	C106.020767,464.135437 87.468010,464.344757 68.924538,464.487274 
	C63.867096,464.526184 58.700111,463.939392 53.758396,462.847626 
	C39.123447,459.614410 33.056267,447.837280 33.032257,434.568542 
	C32.894726,358.576111 32.956654,282.583313 32.951847,206.590622 
	C32.950790,189.925552 32.822041,173.259125 32.995407,156.595856 
	C33.140522,142.648010 40.056938,130.559418 55.801910,127.171181 
	C57.561989,126.792419 59.402054,126.722672 61.210873,126.643967 
	C69.130768,126.299355 77.055061,125.695679 84.973618,125.753471 
	C103.123100,125.885910 119.935249,127.908318 133.920349,142.688705 
	C159.094986,169.294922 185.878677,194.376114 211.867279,220.218002 
	C215.092789,223.425293 217.167374,222.879807 220.084930,219.947708 
	C246.974091,192.924637 273.956329,165.994125 300.928162,139.053329 
	C308.293457,131.696518 316.734589,126.712074 327.565125,126.580833 
	C340.342743,126.426003 353.136780,125.440369 365.886932,125.880257 
	C376.452606,126.244781 386.785339,128.951340 392.597839,139.075546 
	C394.875610,143.042969 396.606445,147.958954 396.660370,152.465973 
	C397.021088,182.625519 396.864380,212.791290 396.870728,242.955032 
	C396.874725,261.781067 396.869690,280.607086 396.869629,299.433105 
	C396.869568,322.416229 396.797485,345.399719 396.901886,368.382355 
	C396.953888,379.836548 397.373535,391.288544 397.546356,402.742767 
	C397.705444,413.286804 398.058533,423.841248 397.754303,434.374542 
	C397.533356,442.024139 395.931427,449.445099 390.417999,455.442535 
	C385.783539,460.483917 379.829102,462.767731 373.335724,463.398865 
	C365.576782,464.153046 357.752808,464.238495 349.554626,464.477844 
M76.100273,384.032104 
	C70.869850,400.465515 81.013077,417.855469 101.243202,414.692749 
	C112.716347,412.899017 121.680771,398.647583 117.852150,387.629547 
	C116.761131,384.489838 116.002525,381.006836 114.085945,378.428741 
	C109.981567,372.907745 103.620285,370.882233 97.118294,370.666412 
	C87.727318,370.354706 80.790703,374.929169 76.100273,384.032104 
M82.859818,216.666031 
	C92.216324,223.166092 105.344978,222.967239 113.090553,214.069138 
	C119.845467,206.309067 121.177788,194.040985 115.096710,186.251770 
	C108.217850,177.440689 94.735397,174.755814 85.777931,180.082886 
	C74.005249,187.084198 69.607323,203.779282 82.859818,216.666031 
M74.845787,293.770996 
	C75.092339,296.553558 74.972519,299.429535 75.653473,302.101379 
	C77.778885,310.440735 83.604584,315.800751 91.637589,317.410339 
	C100.955673,319.277435 109.448692,316.581390 115.390884,308.460663 
	C120.126694,301.988617 120.195610,290.641510 115.688759,283.990234 
	C110.561188,276.422882 101.087158,272.642426 92.808182,274.340790 
	C82.473297,276.461029 76.942169,282.933929 74.845787,293.770996 
z"/>
<path fill="#F3C92F" opacity="1.000000" stroke="none" 
	d="
M520.966309,333.965515 
	C485.793121,359.523376 450.900513,384.854523 414.817627,411.049805 
	C414.817627,334.898529 414.817627,259.945251 414.817627,184.113159 
	C425.096039,191.232376 434.577820,197.668701 443.920013,204.301620 
	C457.599701,214.014145 471.141785,223.920258 484.810150,233.648926 
	C507.061066,249.486313 529.492188,265.075226 551.533081,281.198578 
	C555.494446,284.096405 558.546021,288.738159 560.930298,293.160919 
	C563.709656,298.316650 560.194458,302.893616 557.010132,306.539490 
	C553.905334,310.094269 549.869019,312.890442 546.035339,315.742218 
	C537.843201,321.836151 529.517700,327.750763 520.966309,333.965515 
z"/>
<path fill="#050401" opacity="1.000000" stroke="none" 
	d="
M76.277740,383.675415 
	C80.790703,374.929169 87.727318,370.354706 97.118294,370.666412 
	C103.620285,370.882233 109.981567,372.907745 114.085945,378.428741 
	C116.002525,381.006836 116.761131,384.489838 117.852150,387.629547 
	C121.680771,398.647583 112.716347,412.899017 101.243202,414.692749 
	C81.013077,417.855469 70.869850,400.465515 76.277740,383.675415 
z"/>
<path fill="#050501" opacity="1.000000" stroke="none" 
	d="
M82.534073,216.496704 
	C69.607323,203.779282 74.005249,187.084198 85.777931,180.082886 
	C94.735397,174.755814 108.217850,177.440689 115.096710,186.251770 
	C121.177788,194.040985 119.845467,206.309067 113.090553,214.069138 
	C105.344978,222.967239 92.216324,223.166092 82.534073,216.496704 
z"/>
<path fill="#050401" opacity="1.000000" stroke="none" 
	d="
M74.847061,293.327637 
	C76.942169,282.933929 82.473297,276.461029 92.808182,274.340790 
	C101.087158,272.642426 110.561188,276.422882 115.688759,283.990234 
	C120.195610,290.641510 120.126694,301.988617 115.390884,308.460663 
	C109.448692,316.581390 100.955673,319.277435 91.637589,317.410339 
	C83.604584,315.800751 77.778885,310.440735 75.653473,302.101379 
	C74.972519,299.429535 75.092339,296.553558 74.847061,293.327637 
z"/>
</svg>